<?xml version="1.0" encoding="UTF-8"?>
<svg width="300px" height="59px" viewBox="0 0 300 59" version="1.1" xmlns="http://www.w3.org/2000/svg" xmlns:xlink="http://www.w3.org/1999/xlink">
    <!-- Generator: Sketch 49.3 (51167) - http://www.bohemiancoding.com/sketch -->
    <title>nctuartfest</title>
    <desc>Created with Sketch.</desc>
    <defs></defs>
    <g id="Index" stroke="none" stroke-width="1" fill="none" fill-rule="evenodd">
        <g id="Extra-large:-Desktops---12-col" transform="translate(-269.000000, -360.000000)" fill="#0A2C42">
            <g id="Header-主題文字" transform="translate(262.000000, 311.000000)">
                <path d="M26.7,90.02 C24.78,86.3 23.1,82.34 21.72,78.32 C21.66,78.02 21.42,77.48 21.42,77.12 C21.42,76.94 21.54,76.82 21.72,76.82 C22.02,76.82 22.5,77.6 22.62,77.84 C24.96,81.32 26.52,83.42 29.22,86.54 C31.08,83.78 33,80.96 34.32,77.84 C34.5,77.42 35.16,75.14 35.46,75.14 C36.18,75.14 41.82,79.34 41.82,80.24 C41.82,80.9 40.44,81.02 40.02,81.08 C37.74,84.2 35.52,87.44 33.18,90.56 C39.24,95.6 43.68,99.02 51.12,101.96 C51.48,102.08 52.62,102.38 52.62,102.86 C52.62,103.16 51.54,103.1 51.3,103.16 C48.84,103.28 46.68,105.02 45.06,106.7 C41.46,104.6 37.5,102.2 34.56,99.2 L29.88,94.4 C24.66,98.6 19.92,102.26 13.62,104.54 C12.72,104.9 8.58,106.4 7.68,106.4 C7.5,106.4 7.32,106.28 7.32,106.1 C7.32,105.8 8.46,105.32 8.7,105.2 C14.64,102.08 18.12,99.62 22.62,94.7 C24.06,93.2 25.44,91.64 26.7,90.02 Z M44.22,63.68 C44.28,63.62 46.74,60.32 47.34,60.32 C47.82,60.32 49.02,61.4 49.32,61.7 C49.68,62.06 52.44,64.28 52.44,65.18 C52.44,65.72 51.78,66.02 51.3,66.02 L11.4,66.02 L10.14,66.8 L7.86,63.32 C9.18,63.44 10.62,63.68 11.88,63.68 L44.22,63.68 Z M25.44,71.78 C23.58,73.64 21.72,75.62 19.62,77.24 C18.36,78.26 11.64,83.36 10.56,83.36 C10.44,83.36 10.26,83.24 10.26,83.12 C10.26,83.06 10.38,82.88 10.38,82.88 C12.3,81.02 13.92,79.04 15.48,76.88 C17.1,74.54 18.84,72.08 20.04,69.5 C20.34,68.78 20.76,67.94 20.88,67.22 C20.94,67.04 20.94,66.8 21.12,66.68 C21.18,66.56 21.3,66.56 21.42,66.56 C21.6,66.62 27.9,69.86 27.9,70.82 C27.9,71.54 25.92,71.72 25.44,71.78 Z M49.14,78.38 C49.14,79.88 48.06,81.38 46.44,81.38 C45.6,81.38 44.88,81.08 44.4,80.48 C43.74,79.7 43.26,78.8 42.9,77.96 C42.3,76.7 41.58,75.44 40.8,74.3 C39.84,72.8 38.64,71.54 37.32,70.46 C36.96,70.16 34.56,68.36 34.56,67.88 C34.56,67.76 34.92,67.64 35.04,67.64 C35.22,67.64 35.4,67.7 35.58,67.76 C37.62,68.42 39.3,69.08 41.22,69.98 C42.3,70.52 43.56,71.06 44.58,71.78 C46.68,73.28 49.14,75.56 49.14,78.38 Z M30.3,62.3 C27.6,62.3 27.72,58.4 27.54,56.66 C27.48,55.82 27.36,54.92 27.12,54.08 C26.82,52.94 25.14,51.02 25.14,50.9 C25.14,50.66 25.38,50.66 25.56,50.66 L25.86,50.66 C28.14,51.2 30.36,52.22 31.98,54.02 C33,55.22 33.96,56.72 33.96,58.4 C33.96,60.74 32.76,62.3 30.3,62.3 Z M73.1733328,72.26 L72.0333328,73.04 L69.8733328,69.8 C71.1333328,69.86 72.5133328,70.1 73.7133328,70.1 L88.8933328,70.1 C89.3133328,65.9 89.5533328,60.98 89.5533328,56.72 C89.5533328,54.98 89.3733328,53.24 89.3133328,51.5 C89.3133328,51.2 88.8333328,50.6 88.8333328,50.24 C88.8333328,49.94 89.1933328,49.88 89.4333328,49.88 C90.2733328,49.88 95.8533328,51.08 96.7533328,51.62 C96.9933328,51.74 97.3533328,51.86 97.3533328,52.22 C97.3533328,52.88 95.8533328,53.78 95.3733328,54.14 C95.1333328,59.48 94.7733328,64.76 94.3533328,70.1 L107.853333,70.1 C108.213333,69.68 110.133333,67.04 110.853333,67.04 C111.813333,67.04 113.733333,69.32 114.393333,69.98 C114.693333,70.28 115.473333,71.12 115.473333,71.6 C115.473333,72.02 114.753333,72.26 114.453333,72.26 L95.0133328,72.26 C96.3333328,79.4 100.413333,87.98 105.213333,93.5 C106.473333,95 107.913333,96.38 109.353333,97.7 C110.433333,98.72 111.453333,99.8 112.653333,100.64 C113.673333,101.36 114.813333,101.96 115.893333,102.56 C116.073333,102.68 116.253333,102.8 116.253333,102.98 C116.253333,103.64 114.693333,103.46 114.273333,103.46 C111.813333,103.52 109.413333,104.12 107.433333,105.62 C100.173333,97.46 96.4533328,91.28 94.7733328,80.3 C94.4133328,77.96 94.2933328,75.56 94.0533328,73.16 C93.8133328,75.26 93.4533328,77.36 93.1533328,79.46 C92.6133328,82.82 91.2933328,86.18 89.7933328,89.18 C88.0533328,92.6 85.8333328,95.66 82.8933328,98.06 C80.8533328,99.74 78.6933328,101.42 76.4133328,102.86 C75.6333328,103.34 71.7933328,105.74 71.0733328,105.74 C70.8933328,105.74 70.7733328,105.56 70.7733328,105.44 C70.7733328,105.2 71.0133328,104.96 71.1933328,104.84 C74.4933328,102.2 77.1933328,99.44 79.8933328,96.2 C85.7733328,89.24 87.8733328,81.14 88.6533328,72.26 L73.1733328,72.26 Z M179.406666,89.06 C179.406666,89.66 178.926666,89.78 178.386666,89.78 C176.946666,89.78 174.906666,88.82 173.646666,88.16 C169.686666,86.12 169.026666,80.72 169.026666,76.64 C169.026666,75.08 169.146666,73.46 169.206666,71.84 L166.026666,71.96 C165.726666,73.76 165.426666,75.5 165.066666,77.36 C166.266666,78.44 168.426666,80.3 168.426666,82.1 C168.426666,83.24 167.766666,84.26 166.566666,84.26 C165.006666,84.26 164.226666,82.22 163.626666,81.08 C162.246666,83.36 160.566666,85.46 158.466666,87.02 C158.226666,87.2 157.206666,88.04 156.966666,88.04 C156.786666,88.04 156.606666,87.86 156.606666,87.68 C156.606666,87.38 157.326666,86.48 157.506666,86.18 C159.306666,83.6 160.206666,80.78 160.986666,77.78 C160.026666,76.88 159.486666,75.92 158.406666,75.2 C158.226666,75.08 157.806666,74.84 157.686666,74.66 C157.686666,74.54 157.626666,74.48 157.626666,74.42 C157.626666,74.3 157.806666,74.18 157.926666,74.18 C158.706666,74.18 160.746666,75.08 161.526666,75.44 C161.706666,74.3 161.826666,73.22 161.946666,72.14 L160.566666,72.26 L159.846666,72.98 L157.386666,69.8 C158.466666,69.86 159.546666,70.16 160.626666,70.16 C161.286666,70.16 161.466666,70.16 162.126666,70.1 L162.186666,62.12 L160.686666,62.54 L160.986666,58.46 L152.286666,58.46 L152.526666,61.28 L149.946666,62.36 C150.066666,62.54 150.066666,62.78 150.066666,62.96 C150.066666,63.32 149.466666,63.5 149.166666,63.56 L149.166666,65.12 L150.366666,65.12 C150.606666,64.82 151.926666,63.2 152.406666,63.2 C153.006666,63.2 154.566666,65.12 154.986666,65.54 C155.166666,65.78 155.466666,66.08 155.466666,66.44 C155.466666,66.86 155.046666,67.1 154.686666,67.1 L149.166666,67.1 L149.166666,70.16 L152.706666,70.16 C153.066666,69.8 153.966666,68.42 154.626666,68.42 C155.226666,68.42 156.906666,70.34 157.326666,70.76 C157.566666,71 157.806666,71.3 157.806666,71.66 C157.806666,72.08 157.446666,72.2 157.086666,72.2 L151.986666,72.2 L151.986666,73.28 C152.106666,74 152.586666,74.24 153.006666,74.24 L154.746666,74.24 L156.006666,73.88 C156.846666,73.94 157.686666,75.5 157.686666,76.52 L155.946666,76.7 L151.506666,76.7 C150.306666,76.76 148.746666,75.74 148.926666,74.12 L148.926666,72.2 L142.386666,72.2 C142.986666,72.56 144.906666,73.58 144.906666,74.48 C144.906666,75.08 143.946666,75.08 143.526666,75.08 C142.326666,75.74 135.786666,78.92 134.706666,78.92 C134.526666,78.92 134.106666,79.16 134.106666,78.98 C134.106666,78.74 134.226666,78.62 134.406666,78.5 C136.866666,76.58 138.906666,74.72 140.766666,72.2 L138.666666,72.2 L137.646666,72.92 L135.726666,69.92 C137.046666,70.04 138.486666,70.22 139.806666,70.22 L144.726666,70.22 L144.726666,67.1 L140.646666,67.1 L139.566666,67.82 L137.646666,64.82 C140.106666,65.06 142.266666,65.24 144.726666,65.12 C144.666666,64.34 144.606666,63.62 144.546666,62.9 C144.486666,62.24 144.066666,61.58 144.066666,61.04 C144.066666,60.8 144.246666,60.62 144.486666,60.62 C145.386666,60.62 146.646666,61.1 147.546666,61.28 L147.786666,58.46 L136.806666,58.46 L135.786666,59.24 L133.446666,56 C134.886666,56.06 136.386666,56.3 137.826666,56.3 L147.786666,56.3 L147.786666,53.72 C147.786666,52.64 147.726666,51.38 147.306666,50.3 C147.246666,50.06 147.126666,49.82 147.126666,49.58 C147.126666,49.28 147.666666,49.16 147.906666,49.16 C148.806666,49.16 153.666666,50.24 153.666666,51.38 C153.666666,52.04 152.826666,52.4 152.286666,52.64 L152.286666,56.3 L160.986666,56.3 L160.986666,54.14 C160.986666,53.12 160.926666,51.68 160.566666,50.72 C160.446666,50.48 160.326666,50.24 160.326666,50 C160.326666,49.7 160.986666,49.58 161.226666,49.58 C161.886666,49.58 162.726666,49.88 163.446666,50.06 C164.286666,50.24 166.866666,50.96 166.866666,52.04 C166.866666,52.58 165.906666,52.94 165.486666,53.06 L165.486666,56.3 L172.266666,56.3 C172.446666,56.06 174.906666,53.12 175.266666,53.12 C175.686666,53.12 178.566666,56.42 178.926666,56.78 C179.166666,57.02 179.406666,57.38 179.406666,57.74 C179.406666,58.22 179.046666,58.46 178.626666,58.46 L165.426666,58.46 L165.666666,61.22 L164.346666,61.64 C165.066666,61.88 168.006666,62.66 168.006666,63.68 C168.006666,64.16 167.046666,64.58 166.686666,64.76 C166.506666,66.44 166.386666,68.18 166.266666,69.92 L168.846666,69.8 C169.146666,69.44 170.166666,68 170.766666,68 C171.126666,68 171.546666,68.24 171.846666,68.48 C172.266666,68.78 174.966666,70.4 174.966666,71.12 C174.966666,71.66 173.526666,72.44 173.166666,72.68 C173.106666,74.06 172.986666,75.44 172.986666,76.82 C172.986666,78.38 173.166666,81.14 174.126666,82.46 C174.306666,82.7 174.786666,83.3 175.206666,83.3 C176.646666,83.3 177.606666,77.96 178.506666,77.96 C178.746666,77.96 178.746666,78.2 178.746666,78.38 C178.746666,80.12 178.266666,81.98 178.266666,83.78 C178.266666,85.04 178.506666,86.3 179.046666,87.44 C179.226666,87.98 179.406666,88.46 179.406666,89.06 Z M169.806666,89.78 C169.806666,90.2 169.446666,90.5 169.086666,90.5 L147.486666,90.5 L146.466666,91.1 L144.486666,88.16 C145.866666,88.28 147.246666,88.4 148.626666,88.4 C153.486666,88.46 158.406666,88.46 163.266666,88.46 C163.266666,88.46 165.486666,85.88 165.906666,85.88 C166.386666,85.88 169.326666,89 169.446666,89.06 C169.626666,89.24 169.806666,89.48 169.806666,89.78 Z M156.066666,83.96 C156.066666,84.32 155.886666,84.38 155.586666,84.5 L153.186666,85.04 C147.846666,86.24 142.386666,87.02 137.106666,88.7 L134.826666,83.78 C138.126666,83.9 141.426666,83.96 144.726666,83.96 L144.726666,80.96 L140.886666,80.96 L139.806666,81.68 L137.946666,78.68 C139.266666,78.8 140.706666,78.98 142.026666,78.98 L144.726666,78.98 L144.726666,78.26 C144.726666,77.78 144.666666,77.18 144.606666,76.7 C144.546666,76.22 144.186666,75.92 144.186666,75.38 C144.186666,75.2 144.546666,75.14 144.666666,75.14 C145.866666,75.14 147.726666,75.5 148.806666,75.98 C149.106666,76.1 150.186666,76.52 150.186666,76.94 C150.186666,77.48 149.646666,77.84 149.166666,78.08 L149.166666,78.98 L150.666666,78.98 C150.906666,78.74 151.986666,77.42 152.286666,77.42 C152.766666,77.42 154.866666,79.82 154.866666,80.36 C154.866666,80.78 154.386666,80.96 154.026666,80.96 L149.166666,80.96 L149.166666,83.9 L155.346666,83.66 C155.586666,83.6 156.066666,83.66 156.066666,83.96 Z M178.626666,95 C178.626666,95.48 178.206666,95.72 177.786666,95.72 L154.926666,95.72 C155.346666,95.96 156.426666,96.62 156.426666,97.22 C156.426666,97.94 154.566666,98.12 154.086666,98.18 C151.866666,99.38 149.646666,100.52 147.426666,101.6 C153.486666,101.54 159.606666,101.42 165.666666,101.24 C164.466666,99.92 163.206666,98.78 161.826666,97.58 C161.526666,97.34 161.346666,97.28 161.346666,96.86 C161.346666,96.68 161.706666,96.68 161.826666,96.68 C162.366666,96.68 163.026666,96.86 163.566666,96.98 C166.506666,97.7 168.486666,98.66 170.886666,100.58 C171.966666,101.42 172.926666,102.44 172.926666,103.88 C172.926666,105.56 172.206666,106.7 170.406666,106.7 C168.486666,106.7 167.526666,103.94 166.626666,102.62 C158.586666,103.7 150.666666,104.96 142.746666,106.46 L140.226666,101.42 C144.846666,101.18 146.826666,99.38 149.466666,95.72 L138.246666,95.72 L137.226666,96.5 L134.886666,93.26 C136.326666,93.38 137.826666,93.62 139.266666,93.62 L170.886666,93.62 C171.246666,93.2 173.526666,90.56 174.066666,90.56 C174.786666,90.56 177.426666,93.38 177.966666,93.92 C178.266666,94.16 178.626666,94.58 178.626666,95 Z M204.699998,80.96 C204.459998,83.66 204.279998,86.3 203.859998,88.94 C204.699998,90.08 205.479998,91.16 206.259998,92.24 L206.259998,78.32 C206.259998,77.24 206.199998,76.22 206.019998,75.14 L200.979998,75.14 L200.079998,75.92 L198.339998,72.74 C200.859998,73.1 203.559998,73.1 206.079998,73.04 L206.079998,64.76 L202.419998,64.76 L201.459998,65.54 L199.719998,62.36 C201.819998,62.6 203.979998,62.72 206.079998,62.6 L206.079998,56.36 C206.079998,55.04 206.079998,53.84 205.779998,52.52 C205.599998,51.92 204.999998,51.02 204.999998,50.6 C204.999998,50.3 205.299998,50.3 205.479998,50.3 C206.379998,50.3 211.059998,51.56 211.719998,51.98 C211.899998,52.1 212.199998,52.4 212.199998,52.64 C212.199998,53 210.819998,54.14 210.579998,54.38 L210.579998,62.9 L211.059998,62.9 C211.419998,62.54 212.619998,60.98 213.219998,60.98 C213.999998,60.98 216.219998,63.32 216.219998,64.1 C216.219998,64.58 215.679998,64.76 215.259998,64.76 L210.579998,64.76 L210.579998,73.04 L211.299998,73.04 C211.659998,72.62 212.739998,70.94 213.399998,70.94 C213.999998,70.94 216.339998,73.46 216.339998,74.24 C216.339998,74.84 215.799998,75.14 215.259998,75.14 L209.619998,75.14 C210.159998,75.32 212.019998,75.86 212.019998,76.52 C212.019998,76.94 210.999998,77.54 210.699998,77.72 L210.699998,82.22 L211.599998,82.22 C211.899998,81.92 212.919998,80.66 213.399998,80.66 C213.879998,80.66 216.219998,82.88 216.219998,83.48 C216.219998,83.96 215.859998,84.38 215.379998,84.38 L210.699998,84.38 L210.699998,95.84 C216.459998,98.66 222.579998,98.6 228.879998,98.6 C233.139998,98.6 237.339998,98.6 241.539998,98.18 C242.139998,98.12 242.739998,98.06 243.339998,98.06 C243.459998,98.06 243.819998,98.06 243.819998,98.3 C243.819998,98.48 243.519998,98.72 243.399998,98.84 C241.179998,100.58 240.579998,101.42 239.499998,103.88 C237.999998,104 236.499998,104.12 234.999998,104.12 C232.119998,104.12 229.239998,104 226.419998,103.88 C222.939998,103.76 219.219998,103.64 215.859998,102.74 C208.959998,100.82 206.619998,97.46 203.439998,91.28 C202.599998,96.32 200.979998,100.64 197.859998,104.72 C197.739998,104.84 197.499998,105.26 197.259998,105.26 C197.079998,105.26 197.079998,105.02 197.079998,104.9 C197.079998,104.66 198.339998,100.58 198.519998,99.8 C198.999998,97.94 199.179998,95.96 199.299998,94.1 C199.659998,89.72 199.959998,85.22 199.959998,80.84 C199.959998,80.48 199.899998,80.06 199.899998,79.64 C199.839998,79.04 199.539998,78.5 199.539998,77.9 C199.539998,77.72 199.779998,77.66 199.899998,77.66 C200.559998,77.66 205.779998,79.22 205.779998,79.82 C205.779998,80.3 204.999998,80.78 204.699998,80.96 Z M224.679998,55.28 C225.099998,54.8 225.999998,53.42 226.779998,53.42 C227.559998,53.42 229.479998,55.46 229.899998,55.76 C230.139998,56 230.439998,56.3 230.439998,56.66 C230.439998,57.8 228.219998,57.44 227.679998,57.44 C227.499998,57.68 227.259998,57.92 226.959998,58.1 L227.019998,84.08 C227.679998,83.84 228.819998,83.36 229.539998,83.36 C229.719998,83.36 229.839998,83.42 229.839998,83.6 C229.839998,84.02 227.319998,85.4 226.959998,85.64 L226.959998,89.6 C226.959998,90.86 227.139998,92.18 227.199998,93.5 C225.879998,94.04 224.499998,94.34 223.119998,94.82 C223.359998,92.6 223.539998,90.26 223.419998,88.04 C220.719998,89.78 218.979998,91.04 216.459998,93.14 L213.999998,88.34 L216.759998,87.62 L216.759998,57.44 L215.919998,57.44 L215.019998,58.16 L213.219998,54.98 C214.239998,55.1 215.379998,55.28 216.399998,55.28 L224.679998,55.28 Z M220.419998,86.3 L223.419998,85.34 L223.419998,78.56 L220.419998,78.56 L220.419998,86.3 Z M220.419998,76.4 L223.419998,76.4 L223.419998,68.84 L220.419998,68.84 L220.419998,76.4 Z M220.419998,66.74 L223.419998,66.74 L223.419998,57.44 L221.079998,57.44 L220.419998,57.98 L220.419998,66.74 Z M235.959998,58.94 C236.319998,58.4 236.799998,57.2 237.639998,57.2 C238.419998,57.2 240.639998,58.64 241.299998,59 C241.719998,59.24 242.439998,59.72 242.439998,60.2 C242.439998,61.04 241.239998,61.7 240.699998,62.06 C239.679998,67.16 238.719998,72.26 237.159998,77.24 C238.659998,80.42 241.899998,87.14 241.899998,90.74 C241.899998,92 241.239998,93.98 239.679998,93.98 C239.319998,93.98 238.959998,93.86 238.659998,93.68 C237.999998,93.2 237.699998,92.18 237.519998,91.46 C236.799998,88.52 236.079998,85.64 235.299998,82.7 C233.259998,87.02 231.399998,90.56 228.639998,94.46 C228.399998,94.7 227.619998,96.02 227.259998,96.02 C227.079998,96.02 226.959998,95.84 226.959998,95.72 C226.959998,95.48 227.439998,94.52 227.499998,94.28 C228.459998,92.06 229.119998,89.66 229.899998,87.44 C231.099998,83.9 232.299998,80.3 233.079998,76.7 C231.999998,73.76 230.919998,70.76 229.719998,67.94 C229.539998,67.58 228.279998,64.88 228.279998,64.46 C229.359998,64.22 233.979998,71.96 234.399998,72.62 C234.759998,70.22 235.119998,67.76 235.479998,65.36 C235.719998,63.92 235.959998,62.54 236.079998,61.1 L230.079998,61.1 L229.179998,61.88 L227.379998,58.7 C228.399998,58.76 229.539998,58.94 230.559998,58.94 L235.959998,58.94 Z M271.093331,58.04 L278.653331,58.04 C278.953331,57.68 280.633331,55.46 281.173331,55.46 C281.773331,55.46 283.813331,57.86 284.233331,58.34 C284.533331,58.64 284.953331,59.12 284.953331,59.54 C284.953331,59.9 284.593331,60.14 284.233331,60.14 L269.533331,60.14 C267.433331,62.96 265.093331,65.72 262.513331,68 C262.213331,68.24 261.133331,69.32 260.773331,69.32 C260.593331,69.2 260.533331,69.14 260.533331,69.02 C260.533331,69.02 262.753331,64.94 262.993331,64.52 C264.853331,60.98 268.153331,53.48 268.393331,49.7 C268.513331,49.52 268.693331,49.52 268.813331,49.52 C269.473331,49.52 273.433331,51.08 274.273331,51.5 C274.693331,51.68 275.533331,52.04 275.533331,52.58 C275.533331,53.06 273.913331,53.66 273.553331,53.78 C272.713331,55.16 271.873331,56.6 271.093331,58.04 Z M278.353331,85.76 L270.313331,85.76 L270.313331,95.66 C272.533331,94.88 274.753331,94.1 276.973331,93.2 C276.373331,91.82 275.653331,90.62 274.813331,89.36 C274.753331,89.18 274.573331,89.06 274.573331,88.82 C274.573331,88.7 274.993331,88.7 275.053331,88.7 C275.353331,88.7 277.093331,89.9 277.393331,90.08 C279.433331,91.4 283.633331,95.12 283.633331,97.7 C283.633331,99.26 282.853331,101.3 280.993331,101.3 C278.113331,101.3 278.233331,97.88 277.873331,96.02 C277.813331,95.54 277.573331,95.06 277.453331,94.64 C274.033331,97.34 270.613331,100.04 267.313331,102.92 L264.313331,96.92 C265.453331,96.14 265.753331,95.9 265.753331,94.46 L265.753331,74.18 C265.753331,73.16 265.573331,71.84 265.573331,70.76 C265.513331,70.1 265.153331,69.44 265.153331,68.78 C265.153331,68.48 265.393331,68.42 265.693331,68.42 C266.353331,68.42 269.833331,69.86 270.613331,70.1 L277.873331,70.1 C277.993331,69.98 279.433331,68.06 279.673331,68.06 C280.213331,68.06 284.293331,70.58 284.293331,71.3 C284.293331,71.9 283.033331,72.5 282.613331,72.74 L282.613331,82.64 C282.613331,84.02 282.793331,85.46 282.913331,86.84 C281.353331,87.26 279.733331,87.62 278.173331,87.8 L278.353331,85.76 Z M270.313331,83.66 L278.353331,83.66 L278.353331,78.5 L270.313331,78.5 L270.313331,83.66 Z M278.353331,76.34 L278.353331,72.26 L270.853331,72.26 L270.313331,73.04 L270.313331,76.34 L278.353331,76.34 Z M293.473331,54.08 C292.633331,55.4 291.793331,56.78 290.953331,58.16 L299.653331,58.16 C300.013331,57.8 301.813331,55.46 302.293331,55.46 C302.953331,55.46 305.293331,58.1 305.653331,58.52 C305.953331,58.76 306.373331,59.3 306.373331,59.72 C306.373331,60.08 306.073331,60.32 305.773331,60.32 L289.573331,60.32 C287.893331,62.66 286.033331,64.88 283.873331,66.86 C283.633331,67.1 282.853331,67.94 282.493331,67.94 C282.373331,67.94 282.253331,67.82 282.253331,67.64 C282.253331,67.28 282.793331,66.38 282.973331,66.08 C284.233331,63.62 285.313331,61.22 286.333331,58.64 C287.053331,56.84 287.773331,54.92 288.133331,53 C288.193331,52.52 288.313331,51.98 288.373331,51.44 C288.433331,51.14 288.373331,49.64 288.853331,49.64 C289.573331,49.64 294.013331,51.44 294.733331,51.92 C294.973331,52.16 295.393331,52.46 295.393331,52.82 C295.393331,53.3 293.833331,53.96 293.473331,54.08 Z M297.913331,72.44 L292.273331,72.44 L291.733331,73.34 L291.733331,100.46 C291.733331,102.26 291.913331,104.12 292.033331,105.92 C290.413331,106.4 288.733331,106.76 287.053331,107.06 C287.173331,104.78 287.413331,102.44 287.413331,100.16 L287.413331,75.74 C287.413331,74.18 287.233331,72.62 287.053331,71.06 C286.993331,70.46 286.513331,69.14 286.513331,68.84 C286.513331,68.54 286.933331,68.42 287.173331,68.42 C287.713331,68.42 291.553331,70.04 292.273331,70.34 L297.373331,70.34 C297.613331,70.04 299.053331,68.12 299.533331,68.12 C300.013331,68.12 304.333331,71.12 304.333331,71.54 C304.333331,71.9 302.593331,73.04 302.413331,73.22 L302.413331,94.28 C302.413331,95.12 302.353331,96.2 302.113331,96.98 C301.513331,99.08 297.673331,99.68 295.873331,99.98 C295.693331,98 295.333331,96.86 293.593331,95.9 C293.353331,95.72 292.273331,95.3 292.273331,94.94 C292.273331,94.58 292.513331,94.52 292.813331,94.52 C293.893331,94.52 294.973331,94.76 296.053331,94.76 C297.253331,94.76 297.913331,94.46 297.913331,93.2 L297.913331,72.44 Z M292.033331,61.04 C292.033331,60.8 292.333331,60.74 292.513331,60.74 C293.173331,60.74 294.553331,61.52 295.153331,61.76 C296.413331,62.36 298.633331,63.56 298.633331,65.24 C298.633331,66.56 297.733331,68.66 296.233331,68.66 C295.693331,68.66 295.153331,68.42 294.733331,68.06 C293.413331,67.04 294.073331,64.04 292.573331,62 C292.453331,61.76 292.033331,61.28 292.033331,61.04 Z M271.333331,60.98 C271.333331,60.8 271.513331,60.74 271.693331,60.74 C272.773331,60.74 275.413331,62.36 276.313331,63.08 C277.033331,63.62 277.573331,64.34 277.573331,65.3 C277.573331,66.5 276.613331,68.3 275.293331,68.3 C274.753331,68.3 274.273331,68.06 273.913331,67.7 C272.713331,66.8 273.073331,64.46 272.473331,63.08 C272.233331,62.6 271.333331,61.22 271.333331,60.98 Z" id="nctuartfest"></path>
            </g>
        </g>
    </g>
</svg>